<svg width="9" height="11" viewBox="0 0 9 11" fill="none" xmlns="http://www.w3.org/2000/svg">
<path d="M2.44921 8.22294C2.70092 8.22294 2.89271 8.30085 3.01257 8.36678C3.2463 8.49863 3.63586 8.83425 3.63586 9.62535V9.96097C3.62388 10.1947 3.70179 10.3925 3.85162 10.5483C4.00744 10.7101 4.2232 10.8 4.44494 10.8H4.57679C4.80454 10.8 5.02628 10.7101 5.17611 10.5543C5.27201 10.4404 5.39187 10.2606 5.37988 9.97895V9.65532C5.37988 8.86422 5.76944 8.5286 6.00318 8.39675C6.23691 8.2649 6.72236 8.10907 7.3936 8.51062L7.67528 8.66644C7.87305 8.7923 8.08282 8.82226 8.28059 8.76832C8.49035 8.71439 8.67614 8.57654 8.77803 8.38476L8.8859 8.19897C8.99977 8.00719 9.02974 7.78544 8.96981 7.56968C8.90988 7.35992 8.77203 7.18612 8.57426 7.08424L8.26261 6.91043C7.75319 6.64074 7.45353 6.22121 7.45353 5.75375C7.45353 5.29227 7.75319 4.86675 8.2746 4.59106L8.56227 4.42925C8.77203 4.32137 8.90988 4.15356 8.96981 3.94979C9.02974 3.74003 8.99977 3.5063 8.87991 3.29653L8.802 3.13472C8.70611 2.9729 8.51433 2.83506 8.29258 2.77513C8.07682 2.71519 7.84908 2.75115 7.6573 2.86502L7.39959 3.02684C6.69839 3.42838 6.21893 3.26057 5.99119 3.12872C5.76345 2.99088 5.37988 2.64927 5.37988 1.87015V1.57049C5.39187 1.33676 5.31396 1.13898 5.16413 0.98316C5.0083 0.821343 4.79255 0.731445 4.5708 0.731445H4.43895C4.2172 0.731445 4.00145 0.821343 3.84562 0.98316C3.70179 1.13898 3.62388 1.33676 3.63586 1.54652V1.87015C3.63586 2.66126 3.2463 2.99687 3.01257 3.12872C2.78483 3.26057 2.29339 3.4164 1.62215 3.01485L1.34047 2.85903C1.1367 2.73317 0.91495 2.70321 0.717175 2.75715C0.513406 2.81109 0.339603 2.94893 0.237719 3.14071L0.0519296 3.38643C-0.00200921 3.5003 -0.025982 3.73404 0.0399432 3.94979C0.105868 4.15955 0.243712 4.33336 0.441487 4.43524L0.699195 4.56709C1.43636 4.98662 1.53824 5.50802 1.53225 5.78371C1.52626 6.05341 1.41239 6.55683 0.705188 6.92841L0.417515 7.08424C0.231726 7.18612 0.093882 7.35992 0.0399432 7.56968C-0.0199888 7.78544 0.00997719 8.01318 0.129841 8.20496L0.219739 8.37277C0.31563 8.53459 0.501419 8.67243 0.711181 8.73236C0.920943 8.7863 1.1367 8.75634 1.32848 8.64247L1.64612 8.46866C1.95177 8.28288 2.22147 8.22294 2.44921 8.22294Z" fill="#A37A2A"/>
</svg>
